<svg id="facebook" xmlns="http://www.w3.org/2000/svg" width="11.679" height="25.127" viewBox="0 0 11.679 25.127">
  <g id="Group_24" data-name="Group 24">
    <path id="Path_2" data-name="Path 2" d="M171.4,0h-2.617q-3,0-4.315,1.426a6,6,0,0,0-1.311,4.2V7.39a.844.844,0,0,1-.844.844h-.9a.844.844,0,0,0-.844.844V11.72a.844.844,0,0,0,.844.844h.9a.844.844,0,0,1,.844.844V24.283a.844.844,0,0,0,.844.844h3.512a.844.844,0,0,0,.844-.844V13.407a.844.844,0,0,1,.844-.844h1.773a.958.958,0,0,0,.932-.839l.28-2.652a.743.743,0,0,0-.755-.839H169.2a.844.844,0,0,1-.844-.844V6.068a4.74,4.74,0,0,1,.046-.755,1.469,1.469,0,0,1,.206-.526.841.841,0,0,1,.518-.358,3.693,3.693,0,0,1,.953-.1H171.4a.844.844,0,0,0,.844-.844V.844A.843.843,0,0,0,171.4,0Z" transform="translate(-160.564)" fill="#acacac"/>
  </g>
</svg>
