<svg xmlns="http://www.w3.org/2000/svg" width="119.115" height="20.506" viewBox="0 0 119.115 20.506">
  <g id="Group_12" data-name="Group 12" transform="translate(-566.5 -1858)">
    <path id="Polygon_1" data-name="Polygon 1" d="M10.705,0l2.944,7.255,7.761.578-5.942,5.061,1.853,7.612-6.616-4.127L4.089,20.506l1.853-7.612L0,7.833l7.761-.578Z" transform="translate(566.5 1858)" fill="#ffa200"/>
    <path id="Polygon_2" data-name="Polygon 2" d="M10.705,0l2.944,7.255,7.761.578-5.942,5.061,1.853,7.612-6.616-4.127L4.089,20.506l1.853-7.612L0,7.833l7.761-.578Z" transform="translate(590.926 1858)" fill="#ffa200"/>
    <path id="Polygon_3" data-name="Polygon 3" d="M10.705,0l2.944,7.255,7.761.578-5.942,5.061,1.853,7.612-6.616-4.127L4.089,20.506l1.853-7.612L0,7.833l7.761-.578Z" transform="translate(615.352 1858)" fill="#ffa200"/>
    <path id="Polygon_4" data-name="Polygon 4" d="M10.705,0l2.944,7.255,7.761.578-5.942,5.061,1.853,7.612-6.616-4.127L4.089,20.506l1.853-7.612L0,7.833l7.761-.578Z" transform="translate(639.778 1858)" fill="#ffa200"/>
    <path id="Polygon_5" data-name="Polygon 5" d="M10.705,0l2.944,7.255,7.761.578-5.942,5.061,1.853,7.612-6.616-4.127L4.089,20.506l1.853-7.612L0,7.833l7.761-.578Z" transform="translate(664.204 1858)" fill="#c4c4c4"/>
  </g>
</svg>
