<svg id="instagram" xmlns="http://www.w3.org/2000/svg" width="25.669" height="25.674" viewBox="0 0 25.669 25.674">
  <path id="Path_3" data-name="Path 3" d="M26.053,7.548a9.381,9.381,0,0,0-.6-3.115A6.577,6.577,0,0,0,21.7.677a9.4,9.4,0,0,0-3.114-.6C17.21.015,16.774,0,13.288,0S9.366.015,8,.075a9.384,9.384,0,0,0-3.114.6A6.264,6.264,0,0,0,2.605,2.157a6.321,6.321,0,0,0-1.48,2.272,9.407,9.407,0,0,0-.6,3.114c-.065,1.374-.08,1.811-.08,5.3s.015,3.922.075,5.291a9.381,9.381,0,0,0,.6,3.115A6.576,6.576,0,0,0,4.877,25a9.407,9.407,0,0,0,3.115.6c1.369.06,1.806.075,5.291.075s3.922-.015,5.291-.075a9.379,9.379,0,0,0,3.114-.6,6.567,6.567,0,0,0,3.757-3.757,9.413,9.413,0,0,0,.6-3.115c.06-1.369.075-1.806.075-5.291s-.005-3.922-.065-5.291ZM23.741,18.031a7.037,7.037,0,0,1-.441,2.382,4.259,4.259,0,0,1-2.438,2.438,7.062,7.062,0,0,1-2.382.441c-1.354.06-1.76.075-5.186.075s-3.837-.015-5.186-.075a7.033,7.033,0,0,1-2.382-.441,3.951,3.951,0,0,1-1.474-.958,3.992,3.992,0,0,1-.958-1.474,7.063,7.063,0,0,1-.441-2.382c-.06-1.354-.075-1.761-.075-5.186s.015-3.837.075-5.186a7.033,7.033,0,0,1,.441-2.382,3.9,3.9,0,0,1,.963-1.475A3.986,3.986,0,0,1,5.73,2.849a7.067,7.067,0,0,1,2.382-.441c1.354-.06,1.761-.075,5.186-.075s3.837.015,5.186.075a7.037,7.037,0,0,1,2.382.441,3.948,3.948,0,0,1,1.474.958A3.991,3.991,0,0,1,23.3,5.281a7.066,7.066,0,0,1,.441,2.382c.06,1.354.075,1.76.075,5.186s-.015,3.827-.075,5.181Zm0,0" transform="translate(-0.449)" fill="#acacac"/>
  <path id="Path_4" data-name="Path 4" d="M131.544,124.5a6.6,6.6,0,1,0,6.6,6.6A6.6,6.6,0,0,0,131.544,124.5Zm0,10.874a4.278,4.278,0,1,1,4.278-4.278A4.279,4.279,0,0,1,131.544,135.374Zm0,0" transform="translate(-118.705 -118.256)" fill="#acacac"/>
  <path id="Path_5" data-name="Path 5" d="M365.529,90.142a1.54,1.54,0,1,1-1.54-1.54A1.54,1.54,0,0,1,365.529,90.142Zm0,0" transform="translate(-344.294 -84.158)" fill="#acacac"/>
</svg>
