<svg id="twitter" xmlns="http://www.w3.org/2000/svg" width="28.002" height="22.751" viewBox="0 0 28.002 22.751">
  <g id="Group_25" data-name="Group 25">
    <path id="Path_6" data-name="Path 6" d="M28,50.693a11.969,11.969,0,0,1-3.308.907,5.708,5.708,0,0,0,2.525-3.173,11.472,11.472,0,0,1-3.64,1.39,5.74,5.74,0,0,0-9.93,3.926,5.911,5.911,0,0,0,.133,1.309,16.249,16.249,0,0,1-11.833-6,5.742,5.742,0,0,0,1.764,7.672,5.669,5.669,0,0,1-2.594-.707v.063a5.767,5.767,0,0,0,4.6,5.641,5.73,5.73,0,0,1-1.505.189,5.076,5.076,0,0,1-1.087-.1,5.8,5.8,0,0,0,5.364,4,11.535,11.535,0,0,1-7.118,2.448A10.752,10.752,0,0,1,0,68.175a16.161,16.161,0,0,0,8.807,2.576c10.564,0,16.339-8.751,16.339-16.336,0-.254-.009-.5-.021-.742A11.452,11.452,0,0,0,28,50.693Z" transform="translate(0 -48)" fill="#acacac"/>
  </g>
</svg>
